<?xml version="1.0" encoding="utf-8"?>
<!-- Generator: Adobe Illustrator 24.0.1, SVG Export Plug-In . SVG Version: 6.00 Build 0)  -->
<svg version="1.1" id="Layer_1" xmlns="http://www.w3.org/2000/svg" xmlns:xlink="http://www.w3.org/1999/xlink" x="0px" y="0px"
	 viewBox="0 0 249.12 71.94" style="enable-background:new 0 0 249.12 71.94;" xml:space="preserve">
<style type="text/css">
	.st0{fill:#FF8357;}
	.st1{fill:#4D4D4D;}
	.st2{fill:none;stroke:#4D4D4D;stroke-width:0.8473;stroke-miterlimit:10;}
</style>
<g>
	<path class="st0" d="M86.22,85.7v26.52v30.31h28.79l-28.03-28.79c0,0-1.14-1.14,0-2.27c1.14-1.14,29.55-25.76,29.55-25.76H86.22z"
		/>
	<path class="st0" d="M227.14,86.08l-8.33,14.67h-27.04c-1.68,0-3.2,1.11-3.57,2.75c-0.17,0.73-0.14,1.58,0.29,2.51
		c0.59,1.27,1.91,2.04,3.3,2.04l18.3,0c7.61,0,14.41,5.04,16.32,12.41c0.46,1.76,0.74,3.69,0.74,5.77c0,0.38-0.01,0.75-0.03,1.11
		c-0.51,8.8-8.06,15.56-16.88,15.56H183.2c0,0,6.82-4.94,7.58-14.04h18.95c2.35,0,4.33-1.97,4.1-4.31
		c-0.02-0.17-0.04-0.35-0.08-0.53c-0.4-1.84-2.1-3.11-3.98-3.11h-18.98c0,0-15.53-3.02-15.15-17.43
		c0.38-14.4,15.15-17.43,15.15-17.43H227.14z"/>
	<path class="st1" d="M180.04,122.61c-5.38-3.13-9.18-8.53-9.95-14.83c-4.79,0.14-14.24,0.06-18.3-0.03
		c-1.8-0.04-3.39-1.34-3.64-3.13c0-0.03-0.01-0.06-0.01-0.09c-0.27-2.22,1.53-4.16,3.76-4.16h18.06
		c-0.02-3.41,4.16-12.51,11.48-14.67h-25.52l-20.46,16.67c0,0-3.79,15.15,12.88,18.18h18.94c2.01,0,3.78,1.44,4.07,3.43
		c0.02,0.14,0.04,0.29,0.04,0.43c0.12,2.3-1.83,4.19-4.14,4.18l-37.1-0.11l-15.91-14.64c0,0-0.76-0.76,0-1.52
		c0.76-0.76,32.58-26.64,32.58-26.64h-21.21l-31.06,25.88c0,0-0.76,0.76,0,1.52s28.03,29.43,28.03,29.43s50.76,0,52.28,0
		c1.52,0,12.12-4.55,10.61-17.43C185.47,125.1,182.85,124.46,180.04,122.61z"/>
</g>
<path class="st1" d="M73.3,39.98c0-8.55-0.02-17.09,0.03-25.64c0.01-1.02-0.78-2.46,1.92-2.58c2.82-0.13,2.67,1.24,2.67,2.53
	c0,17.09,0,34.18,0,51.28c0,1.26,0.25,2.66-2.61,2.57c-2.74-0.08-1.98-1.5-1.98-2.52C73.28,57.08,73.3,48.53,73.3,39.98z"/>
<g>
	<circle class="st2" cx="235.69" cy="137.34" r="5.19"/>
	<g>
		<g>
			<g>
				<path class="st1" d="M232.53,135.22h1.69c0.87,0,1.46,0.44,1.46,1.14c0,0.8-0.67,1.17-1.48,1.17h-0.79v1.38h-0.89V135.22z
					 M233.42,136.9h0.68c0.41,0,0.7-0.14,0.7-0.52c0-0.38-0.3-0.52-0.68-0.52h-0.69V136.9z"/>
				<path class="st1" d="M236.41,135.22h0.88v3.03h2.04l-0.1,0.65h-2.82V135.22z"/>
			</g>
		</g>
	</g>
</g>
<g>
	<path class="st0" d="M86.22,11.54v26.52v30.31h28.79L86.98,39.57c0,0-1.14-1.14,0-2.27c1.14-1.14,29.55-25.76,29.55-25.76H86.22z"
		/>
	<path class="st0" d="M227.14,11.92l-8.33,14.67h-27.04c-1.68,0-3.2,1.11-3.57,2.75c-0.17,0.73-0.14,1.58,0.29,2.51
		c0.59,1.27,1.91,2.04,3.3,2.04h18.3c7.61,0,14.41,5.04,16.32,12.41c0.46,1.76,0.74,3.69,0.74,5.77c0,0.38-0.01,0.75-0.03,1.11
		c-0.51,8.8-8.06,15.56-16.88,15.56H183.2c0,0,6.82-4.94,7.58-14.04h18.95c2.35,0,4.33-1.97,4.1-4.31
		c-0.02-0.17-0.04-0.35-0.08-0.53c-0.4-1.84-2.1-3.11-3.98-3.11h-18.98c0,0-15.53-3.02-15.15-17.43
		c0.38-14.4,15.15-17.43,15.15-17.43H227.14z"/>
	<path class="st1" d="M180.04,48.45c-5.38-3.13-9.18-8.53-9.95-14.83c-4.79,0.14-14.24,0.06-18.3-0.03
		c-1.8-0.04-3.39-1.34-3.64-3.13c0-0.03-0.01-0.06-0.01-0.09c-0.27-2.22,1.53-4.16,3.76-4.16h18.06
		c-0.02-3.41,4.16-12.51,11.48-14.67h-25.52l-20.46,16.67c0,0-3.79,15.15,12.88,18.18h18.94c2.01,0,3.78,1.44,4.07,3.43
		c0.02,0.14,0.04,0.29,0.04,0.43c0.12,2.3-1.83,4.19-4.14,4.18l-37.1-0.11l-15.91-14.64c0,0-0.76-0.76,0-1.52
		c0.76-0.76,32.58-26.64,32.58-26.64h-21.21L94.55,37.42c0,0-0.76,0.76,0,1.52s28.03,29.43,28.03,29.43s50.76,0,52.28,0
		c1.52,0,12.12-4.55,10.61-17.43C185.47,50.94,182.85,50.3,180.04,48.45z"/>
</g>
<g>
	<path class="st0" d="M7.94,30.89c0-4.15,0.04-8.29-0.01-12.44c-0.05-4.48,2.11-6.84,6.61-6.87c8.31-0.05,16.63,0.02,24.94-0.04
		c3.25-0.03,5.39,1.45,6.52,4.38c1.57,4.05,0.32,5.91-4,5.95c-5.82,0.06-11.64,0.01-17.46,0.03c-4.5,0.01-6.7,2.21-6.62,6.77
		c0.09,5.3,0.17,10.62-0.05,15.91c-0.09,2.06,1.64,5.42-2.77,5.49c-4.01,0.06-6.96-1.27-7.11-5.76c-0.15-4.47-0.03-8.95-0.03-13.43
		C7.95,30.89,7.94,30.89,7.94,30.89z"/>
	<path class="st0" d="M64.88,49.09c0,4.31,0.05,8.62-0.01,12.93c-0.06,4.22-2.44,6.54-6.51,6.62c-8.47,0.17-16.95,0.08-25.43,0.03
		c-2.49-0.01-4.49-1.18-5.85-3.26c-1.17-1.79-1.12-3.86-0.5-5.75c0.7-2.13,2.77-1.41,4.31-1.43c5.65-0.08,11.3,0,16.96-0.05
		c5.14-0.04,6.89-1.67,7.02-6.81c0.13-5.3-0.08-10.61,0.09-15.91c0.07-2.11-1.44-5.36,2.98-5.29c3.83,0.05,6.64,1.33,6.85,5.5
		c0.22,4.47,0.05,8.95,0.05,13.42C64.85,49.09,64.86,49.09,64.88,49.09z"/>
	<path class="st0" d="M35.11,50.02c-8.87,0.01-8.87,0.01-8.86-9.05c0-1.82-0.12-3.67,0.1-5.46c0.34-2.69,1.76-4.91,4.62-5.09
		c4.47-0.29,8.96-0.12,13.45-0.14c1.85-0.01,2.1,1.27,2.1,2.7c0.01,3.65,0.12,7.3-0.03,10.93c-0.16,3.97-2.42,6-6.39,6.1
		C38.43,50.05,36.77,50.02,35.11,50.02z"/>
</g>
<g>
	<circle class="st2" cx="235.69" cy="63.18" r="5.19"/>
	<g>
		<g>
			<g>
				<path class="st1" d="M232.53,61.06h1.69c0.87,0,1.46,0.44,1.46,1.14c0,0.8-0.67,1.17-1.48,1.17h-0.79v1.38h-0.89V61.06z
					 M233.42,62.74h0.68c0.41,0,0.7-0.14,0.7-0.52c0-0.38-0.3-0.52-0.68-0.52h-0.69V62.74z"/>
				<path class="st1" d="M236.41,61.06h0.88v3.03h2.04l-0.1,0.65h-2.82V61.06z"/>
			</g>
		</g>
	</g>
</g>
</svg>
