<?xml version="1.0" encoding="utf-8"?>
<!-- Generator: Adobe Illustrator 24.0.1, SVG Export Plug-In . SVG Version: 6.00 Build 0)  -->
<svg version="1.1" id="Layer_1" xmlns="http://www.w3.org/2000/svg" xmlns:xlink="http://www.w3.org/1999/xlink" x="0px" y="0px"
	 viewBox="0 0 65.65 27.56" style="enable-background:new 0 0 65.65 27.56;" xml:space="preserve">
<style type="text/css">
	.st0{fill:#595959;}
	.st1{fill:#FFFFFF;}
	.st2{fill:#FF0000;}
</style>
<path class="st0" d="M21.84,17.52v0.5H21.8C21.83,17.86,21.84,17.69,21.84,17.52z"/>
<path class="st0" d="M29.84,17.52v0.5H29.8C29.83,17.86,29.84,17.69,29.84,17.52z"/>
<path class="st0" d="M36.84,17.52v0.5H36.8C36.83,17.86,36.84,17.7,36.84,17.52z"/>
<path class="st0" d="M38.89,18.02h-0.05v-0.5C38.84,17.67,38.86,17.84,38.89,18.02z"/>
<g>
	<g>
		<path class="st1" d="M60.62,20.03v1.16H5.06v-9.26h6.94v5.79c0.89,0.17,2.97,0.44,4.09-0.46c0.37-0.3,0.54-0.72,0.54-1.27v-4.05
			h4.63v5.79c0.89,0.17,2.97,0.44,4.09-0.46c0.37-0.3,0.54-0.72,0.54-1.27v-4.05h4.63v5.89c0.8,0.13,2.14,0.19,2.88-0.39
			C33.8,17.12,34,16.64,34,15.98v-4.05h4.63v4.05c0,0.29,0.1,1.74,1.74,1.74h9.26v0.02h7.72c1.5,0,1.56-1.59,1.56-1.76v-1.16
			c0-0.17-0.06-1.76-1.56-1.76H46.73v-1.11h10.61c2.12,0,2.67,1.87,2.67,2.87v1.16c0,1-0.56,2.87-2.67,2.87h-7.72v0.02h-9.26
			c-1.9,0-2.64-1.31-2.84-2.31c-0.03-0.21-0.06-0.41-0.06-0.58v-2.89h-2.31v2.89c0,0.21-0.01,0.39-0.05,0.58
			c-0.1,0.75-0.44,1.34-0.98,1.78c-0.73,0.57-1.71,0.72-2.56,0.72c-0.78,0-1.42-0.13-1.67-0.19h-0.53v-5.79h-2.31v2.89
			c0,0.2-0.01,0.39-0.05,0.58c-0.12,0.64-0.42,1.17-0.93,1.59c-0.89,0.73-2.23,0.91-3.38,0.91c-0.98,0-1.82-0.14-2.06-0.19h-0.53
			v-5.79H17.8v2.89c0,0.2-0.01,0.39-0.05,0.58c-0.12,0.64-0.42,1.17-0.93,1.59c-0.89,0.73-2.23,0.91-3.38,0.91
			c-0.98,0-1.82-0.14-2.06-0.19h-0.53v-5.79H6.22v6.94H60.62z"/>
	</g>
	<g>
		<path class="st1" d="M42.72,12.49c0.07,0.53,0.36,1.69,1.76,1.69H55.2v1.22H44.48c-2.22,0-3.1-2.04-3.18-3.17l0,0l0,0
			c-0.01-0.21,0.1-2-1.55-2H5.06V8.98h34.68c1.16,0,1.9,0.52,2.35,1.19c0.44-0.66,1.19-1.18,2.38-1.18h14.98V7.3H5.06V6.14h55.55
			v4.07H44.48c-1.56,0-1.75,1.46-1.77,1.86c0,0.02,0.01,0.05,0,0.07"/>
		<path class="st1" d="M42.72,12.31v1.35c-0.01-0.12-0.01-0.2-0.01-0.23v-1.27C42.72,12.21,42.72,12.27,42.72,12.31z"/>
	</g>
</g>
<g>
	<g>
		<path class="st2" d="M48.02,4.12h1.96v0.43h-1.16v0.3h0.99v0.43h-0.99v0.35h1.2v0.43h-2V4.12z"/>
		<path class="st2" d="M50.61,4.12h1.15c0.65,0,1.21,0.14,1.21,0.63c0,0.47-0.56,0.66-1.21,0.66h-0.34v0.65h-0.8V4.12z M51.7,5
			c0.32,0,0.48-0.09,0.48-0.26c0-0.17-0.17-0.22-0.48-0.22h-0.29V5H51.7z M51.61,5.27l0.54-0.34l0.98,1.12h-0.89L51.61,5.27z"/>
		<path class="st2" d="M53.55,4.12h1.11c0.66,0,1.23,0.15,1.23,0.64c0,0.47-0.58,0.68-1.21,0.68h-0.33v0.61h-0.8V4.12z M54.64,5.03
			c0.32,0,0.47-0.1,0.47-0.27c0-0.17-0.18-0.24-0.48-0.24h-0.27v0.51H54.64z"/>
	</g>
	<g>
		<path class="st2" d="M59.64,4.3h-0.21v0.28h-0.53V4.02h-2.52v1.66h0.53c0-0.31,0.24-0.55,0.53-0.55c0.29,0,0.53,0.25,0.53,0.55
			h0.53h0.4h0.13c0-0.31,0.24-0.55,0.53-0.55c0.29,0,0.53,0.25,0.53,0.55h0.53V5.32C60.62,4.76,60.18,4.3,59.64,4.3z"/>
		<ellipse class="st2" cx="59.56" cy="5.78" rx="0.35" ry="0.37"/>
		<ellipse class="st2" cx="57.44" cy="5.78" rx="0.35" ry="0.37"/>
	</g>
</g>
</svg>
