<?xml version="1.0" encoding="UTF-8"?>
<svg xmlns="http://www.w3.org/2000/svg" xmlns:xlink="http://www.w3.org/1999/xlink" width="25px" height="25px" viewBox="0 0 25 25" version="1.1">
<g id="surface1">
<path style=" stroke:none;fill-rule:nonzero;fill:rgb(26.666667%,26.666667%,26.666667%);fill-opacity:1;" d="M 16.796875 5.5625 C 15.214844 5.5625 13.933594 6.84375 13.933594 8.425781 C 13.933594 9.484375 14.511719 10.398438 15.363281 10.894531 L 15.363281 11.292969 C 15.363281 11.292969 15.363281 14.15625 12.5 14.15625 C 11.3125 14.15625 10.382812 14.410156 9.632812 14.800781 L 9.632812 8.03125 C 10.519531 7.523438 11.066406 6.582031 11.066406 5.5625 C 11.066406 3.980469 9.78125 2.699219 8.203125 2.699219 C 6.621094 2.699219 5.335938 3.980469 5.335938 5.5625 C 5.339844 6.582031 5.882812 7.523438 6.769531 8.03125 L 6.769531 17.417969 C 5.886719 17.925781 5.339844 18.867188 5.335938 19.886719 C 5.335938 21.464844 6.621094 22.75 8.203125 22.75 C 9.78125 22.75 11.066406 21.464844 11.066406 19.886719 C 11.066406 19.136719 10.769531 18.457031 10.300781 17.945312 C 10.71875 17.433594 11.394531 17.019531 12.5 17.019531 C 18.183594 17.019531 18.226562 11.292969 18.226562 11.292969 L 18.226562 10.894531 C 19.113281 10.386719 19.65625 9.445312 19.660156 8.425781 C 19.660156 6.84375 18.378906 5.5625 16.796875 5.5625 Z M 8.203125 4.128906 C 8.996094 4.128906 9.636719 4.769531 9.636719 5.5625 C 9.636719 6.355469 8.996094 6.992188 8.203125 6.992188 C 7.410156 6.992188 6.769531 6.355469 6.769531 5.5625 C 6.769531 4.769531 7.410156 4.128906 8.203125 4.128906 Z M 8.203125 21.316406 C 7.414062 21.316406 6.773438 20.675781 6.773438 19.886719 C 6.773438 19.09375 7.414062 18.453125 8.203125 18.453125 C 8.992188 18.453125 9.632812 19.09375 9.636719 19.886719 C 9.636719 20.265625 9.484375 20.628906 9.214844 20.898438 C 8.949219 21.167969 8.582031 21.316406 8.203125 21.316406 Z M 16.796875 9.859375 C 16.003906 9.859375 15.363281 9.21875 15.363281 8.425781 C 15.363281 7.632812 16.003906 6.996094 16.796875 6.996094 C 17.589844 6.996094 18.230469 7.632812 18.230469 8.425781 C 18.230469 9.21875 17.589844 9.859375 16.796875 9.859375 Z M 16.796875 9.859375 "/>
</g>
</svg>
